<svg xmlns="http://www.w3.org/2000/svg" version="1.1" xmlns:xlink="http://www.w3.org/1999/xlink" xmlns:svgjs="http://svgjs.dev/svgjs" width="1500" height="1500" viewBox="0 0 1500 1500"><rect width="1500" height="1500" fill="#ffffff"></rect><g transform="matrix(0.6666666666666666,0,0,0.6666666666666666,248.6870121738819,140.3731182795699)"><svg viewBox="0 0 204 248" data-background-color="#ffffff" preserveAspectRatio="xMidYMid meet" height="1823" width="1500" xmlns="http://www.w3.org/2000/svg" xmlns:xlink="http://www.w3.org/1999/xlink"><g id="tight-bounds" transform="matrix(1,0,0,1,0.26784951652808786,0.4000000000000057)"><svg viewBox="0 0 203.46430096694385 247.2" height="247.2" width="203.46430096694385"><g><svg viewBox="0 0 231.06289066320366 280.73104864338745" height="247.2" width="203.46430096694385"><g><svg viewBox="0 0 231.06289066320366 280.73104864338745" height="280.73104864338745" width="231.06289066320366"><g id="textblocktransform"><svg viewBox="0 0 231.06289066320366 280.73104864338745" height="280.73104864338745" width="231.06289066320366" id="textblock"><g><svg viewBox="0 0 231.06289066320366 245.672304" height="245.672304" width="231.06289066320366"><rect width="231.06289066320366" height="245.672304" x="0" y="0" opacity="1" fill="#b81d33" data-fill-palette-color="tertiary"></rect><g transform="matrix(1,0,0,1,23.461705032,23.461705032)"><svg width="184.13948059920367" viewBox="2.9 -32.05 30.25 32.65" height="198.748893936" data-palette-color="#ffffff"><path d="M15.85 0.6Q15.1 0.5 12.68 0.25 10.25 0 8.65 0L8.65 0Q7.1 0 5.28 0.25 3.45 0.5 2.9 0.6L2.9 0.6 3.2-1.7Q5.5-2.15 6.3-3.03 7.1-3.9 7.1-6L7.1-6 7.15-27Q7.15-28.6 6.78-29.15 6.4-29.7 5.3-29.7L5.3-29.7Q4.8-29.7 4.3-29.65 3.8-29.6 3.6-29.6L3.6-29.6 3.5-29.8 3.85-32Q4.4-31.95 5.95-31.9 7.5-31.85 9.1-31.85L9.1-31.85Q11.25-31.85 13.55-31.93 15.85-32 16.7-32.05L16.7-32.05Q21.5-32.05 25.25-30.18 29-28.3 31.08-24.9 33.15-21.5 33.15-17.1L33.15-17.1Q33.15-12.2 30.85-8.15 28.55-4.1 24.6-1.75 20.65 0.6 15.85 0.6L15.85 0.6ZM13.25-29.6Q12.2-29.6 11.85-29.38 11.5-29.15 11.45-28.5L11.45-28.5Q10.7-9.25 10.7-6.55L10.7-6.55Q10.7-4.65 11.23-3.7 11.75-2.75 13.08-2.35 14.4-1.95 17-1.95L17-1.95Q22.4-1.95 25.5-5.68 28.6-9.4 28.6-15.9L28.6-15.9Q28.6-22.5 24.63-26.05 20.65-29.6 13.25-29.6L13.25-29.6Z" opacity="1" transform="matrix(1,0,0,1,0,0)" fill="#ffffff" class="wordmark-text-0" data-fill-palette-color="quaternary" id="text-0"></path></svg></g></svg></g><g transform="matrix(1,0,0,1,0,257.403156516)"><svg viewBox="0 0 231.06289066320366 23.327892127387482" height="23.327892127387482" width="231.06289066320366"><g transform="matrix(1,0,0,1,0,0)"><svg width="231.06289066320366" viewBox="2.9 -37.1 484.8 48.95" height="23.327892127387482" data-palette-color="#b81d33"><path d="M2.9 0.6L3.2-1.7Q5.5-2.15 6.3-3.03 7.1-3.9 7.1-6L7.1-6 7.15-27Q7.15-28.6 6.78-29.15 6.4-29.7 5.3-29.7L5.3-29.7Q4.8-29.7 4.3-29.65 3.8-29.6 3.6-29.6L3.6-29.6 3.5-29.8 3.85-32Q4.5-31.95 6.48-31.9 8.45-31.85 10.8-31.85L10.8-31.85Q20.65-31.85 24.85-32.45L24.85-32.45 25-32.15Q24.95-31.85 24.73-30.75 24.5-29.65 24.25-27.7 24-25.75 23.85-23.7L23.85-23.7 21.45-23.5Q21.45-23.75 21.5-24.45 21.55-25.15 21.55-25.8L21.55-25.8Q21.55-27.55 21.13-28.23 20.7-28.9 19.4-29.13 18.1-29.35 14.85-29.35L14.85-29.35Q13.1-29.35 12.45-29.25 11.8-29.15 11.6-28.78 11.4-28.4 11.35-27.4L11.35-27.4 10.95-16.85 16.1-16.8Q17.05-16.8 18.9-17.03 20.75-17.25 21.35-17.35L21.35-17.35 21.55-17.1 20.85-14.1Q20.2-14.15 18.43-14.2 16.65-14.25 14.7-14.25L14.7-14.25Q12.85-14.25 10.85-13.9L10.85-13.9 10.65-5.6Q10.65-3.55 11.1-2.88 11.55-2.2 12.85-2.2L12.85-2.2Q13.85-2.2 14.93-2.27 16-2.35 16.4-2.35L16.4-2.35 16.5-2.15 16.05 0.2Q15.25 0.15 13.08 0.08 10.9 0 8.6 0L8.6 0Q7.05 0 5.25 0.25 3.45 0.5 2.9 0.6L2.9 0.6ZM27.55-1.8Q29.05-1.95 29.55-2.78 30.05-3.6 30.05-5.95L30.05-5.95 30.05-16.95Q30.05-18.6 29.6-19.3 29.15-20 28.15-20L28.15-20Q27.75-20 27.47-19.95 27.2-19.9 27.1-19.85L27.1-19.85 26.85-20.2 27-21.75Q28.9-22.1 31.02-22.6 33.15-23.1 33.75-23.25L33.75-23.25 34.1-22.95Q34-22.5 33.8-20.88 33.6-19.25 33.65-17.8L33.65-17.8 33.85-17.65Q35.35-20 37.37-21.5 39.4-23 40.9-23L40.9-23Q41.6-23 41.97-22.93 42.35-22.85 42.45-22.8L42.45-22.8 42.6-22.6Q42.5-21.9 42.17-19.63 41.85-17.35 41.8-15.45L41.8-15.45 39.85-15.3Q39.85-17.35 39.57-18.03 39.3-18.7 38.5-18.7L38.5-18.7Q37.4-18.7 36.15-17.78 34.9-16.85 33.85-15.3L33.85-15.3Q33.8-13.85 33.65-10.5 33.5-7.15 33.45-5.1L33.45-5.1Q33.45-3.4 33.95-2.8 34.45-2.2 35.85-2.2L35.85-2.2Q36.5-2.2 37.15-2.25 37.8-2.3 38.05-2.3L38.05-2.3 38.1-2.1 37.65 0.1Q37.15 0.1 35.65 0.05 34.15 0 32.55 0L32.55 0Q30.7 0 29.2 0.08 27.7 0.15 27.3 0.2L27.3 0.2 27.55-1.8ZM54.75 0.6Q51.9 0.6 49.7-0.8 47.5-2.2 46.27-4.73 45.05-7.25 45.05-10.5L45.05-10.5Q45.05-14 46.57-16.93 48.1-19.85 50.75-21.53 53.4-23.2 56.65-23.2L56.65-23.2Q59.45-23.2 61.67-21.8 63.9-20.4 65.12-17.88 66.34-15.35 66.34-12.1L66.34-12.1Q66.34-8.6 64.82-5.68 63.3-2.75 60.65-1.07 58 0.6 54.75 0.6L54.75 0.6ZM56.15-1.85Q58.95-1.85 60.6-4.13 62.25-6.4 62.25-10.3L62.25-10.3Q62.25-13.25 61.35-15.58 60.45-17.9 58.82-19.2 57.2-20.5 55.15-20.5L55.15-20.5Q52.35-20.5 50.7-18.2 49.05-15.9 49.05-11.95L49.05-11.95Q49.05-9 49.95-6.7 50.85-4.4 52.45-3.13 54.05-1.85 56.15-1.85L56.15-1.85ZM84.49-1.45Q85.99-1.85 86.64-2.63 87.29-3.4 87.29-4.7L87.29-4.7 87.49-14.6Q87.49-17.1 86.42-18.45 85.34-19.8 83.34-19.8L83.34-19.8Q81.74-19.8 80.09-18.98 78.44-18.15 77.19-17.2L77.19-17.2Q76.74-6.85 76.74-4.9L76.74-4.9Q76.74-3.35 77.14-2.73 77.54-2.1 78.54-2.1L78.54-2.1Q79.09-2.1 79.59-2.15 80.09-2.2 80.29-2.2L80.29-2.2 80.39-2 79.94 0.15Q79.49 0.1 78.19 0.05 76.89 0 75.39 0L75.39 0Q74.09 0 72.52 0.13 70.94 0.25 70.44 0.3L70.44 0.3 70.69-1.75Q72.14-2 72.74-2.65 73.34-3.3 73.34-4.7L73.34-4.7 73.34-16.9Q73.34-18.6 72.79-19.28 72.24-19.95 70.89-19.95L70.89-19.95 70.34-19.95 70.19-20.15 70.34-21.8Q72.49-22.15 74.62-22.63 76.74-23.1 77.34-23.25L77.34-23.25 77.64-22.85Q77.54-22.55 77.34-21.58 77.14-20.6 77.09-19.55L77.09-19.55 77.19-19.4Q82.89-23.2 84.54-23.2L84.54-23.2Q87.69-23.2 89.54-21.45 91.39-19.7 91.39-16.75L91.39-16.75Q91.39-16.25 91.09-12.15L91.09-12.15Q90.69-6.95 90.69-4.9L90.69-4.9Q90.69-3.45 91.09-2.78 91.49-2.1 92.44-2.1L92.44-2.1Q92.99-2.1 93.49-2.15 93.99-2.2 94.19-2.2L94.19-2.2 94.29-2 93.89 0.15Q93.44 0.1 92.19 0.05 90.94 0 89.44 0L89.44 0Q88.14 0 86.47 0.25 84.79 0.5 84.29 0.6L84.29 0.6 84.49-1.45ZM105.84 0.6Q102.44 0.6 101.04-0.78 99.64-2.15 99.64-5.45L99.64-5.45 99.64-17.75Q99.64-19.1 99.04-19.65 98.44-20.2 96.79-20.25L96.79-20.25 96.59-20.55 96.84-22.05Q98.29-22.75 99.67-23.78 101.04-24.8 101.92-25.58 102.79-26.35 103.04-26.6L103.04-26.6 104.04-26.2Q103.99-25.95 103.89-25 103.79-24.05 103.64-22.45L103.64-22.45 110.99-22.6 111.14-22.45 110.69-19.8 103.44-19.95Q103.09-14.45 103.09-7.45L103.09-7.45Q103.09-4.9 103.97-3.85 104.84-2.8 106.99-2.8L106.99-2.8Q107.74-2.8 108.49-3 109.24-3.2 109.74-3.43 110.24-3.65 110.39-3.7L110.39-3.7 110.89-2.4Q110.59-2.15 109.62-1.45 108.64-0.75 107.52-0.08 106.39 0.6 105.84 0.6L105.84 0.6ZM124.34 0.6Q121.24 0.6 118.84-0.78 116.44-2.15 115.14-4.67 113.84-7.2 113.84-10.45L113.84-10.45Q113.84-13.8 115.36-16.75 116.89-19.7 119.44-21.45 121.99-23.2 124.89-23.2L124.89-23.2Q128.54-23.2 130.44-21.35 132.34-19.5 132.34-15.95L132.34-15.95Q132.34-14.5 132.04-13.5L132.04-13.5 131.39-12.9 117.59-12.9Q117.54-8.05 119.51-5.43 121.49-2.8 125.04-2.8L125.04-2.8Q127.84-2.8 131.14-4.35L131.14-4.35 131.44-4.25 131.99-2.8Q130.19-1.5 128.01-0.45 125.84 0.6 124.34 0.6L124.34 0.6ZM117.79-14.75L126.84-15.2Q127.59-15.3 127.84-15.55 128.09-15.8 128.09-16.55L128.09-16.55Q128.09-18.55 127.01-19.6 125.94-20.65 123.94-20.65L123.94-20.65Q121.59-20.65 119.91-19.05 118.24-17.45 117.79-14.75L117.79-14.75ZM150.79-1.45Q152.29-1.85 152.94-2.63 153.59-3.4 153.59-4.7L153.59-4.7 153.79-14.6Q153.79-17.1 152.71-18.45 151.64-19.8 149.64-19.8L149.64-19.8Q148.04-19.8 146.39-18.98 144.74-18.15 143.49-17.2L143.49-17.2Q143.04-6.85 143.04-4.9L143.04-4.9Q143.04-3.35 143.44-2.73 143.84-2.1 144.84-2.1L144.84-2.1Q145.39-2.1 145.89-2.15 146.39-2.2 146.59-2.2L146.59-2.2 146.69-2 146.24 0.15Q145.79 0.1 144.49 0.05 143.19 0 141.69 0L141.69 0Q140.39 0 138.81 0.13 137.24 0.25 136.74 0.3L136.74 0.3 136.99-1.75Q138.44-2 139.04-2.65 139.64-3.3 139.64-4.7L139.64-4.7 139.64-16.9Q139.64-18.6 139.09-19.28 138.54-19.95 137.19-19.95L137.19-19.95 136.64-19.95 136.49-20.15 136.64-21.8Q138.79-22.15 140.91-22.63 143.04-23.1 143.64-23.25L143.64-23.25 143.94-22.85Q143.84-22.55 143.64-21.58 143.44-20.6 143.39-19.55L143.39-19.55 143.49-19.4Q149.19-23.2 150.84-23.2L150.84-23.2Q153.99-23.2 155.84-21.45 157.69-19.7 157.69-16.75L157.69-16.75Q157.69-16.25 157.39-12.15L157.39-12.15Q156.99-6.95 156.99-4.9L156.99-4.9Q156.99-3.45 157.39-2.78 157.79-2.1 158.74-2.1L158.74-2.1Q159.29-2.1 159.79-2.15 160.29-2.2 160.49-2.2L160.49-2.2 160.59-2 160.19 0.15Q159.74 0.1 158.49 0.05 157.24 0 155.74 0L155.74 0Q154.44 0 152.76 0.25 151.09 0.5 150.59 0.6L150.59 0.6 150.79-1.45ZM184.33 0.6Q180.43 0.6 179.88-2.95L179.88-2.95 179.53-3.1Q174.33 0.45 173.28 0.45L173.28 0.45Q170.43 0.45 168.23-0.88 166.03-2.2 164.83-4.6 163.63-7 163.63-10.1L163.63-10.1Q163.63-13.65 165.31-16.65 166.98-19.65 169.86-21.43 172.73-23.2 176.08-23.2L176.08-23.2Q177.68-23.2 179.53-23L179.53-23 179.53-31.3Q179.53-34 177.68-34L177.68-34Q177.33-34 176.93-33.93 176.53-33.85 176.43-33.8L176.43-33.8 176.63-35.65Q178.78-35.95 181.08-36.45 183.38-36.95 184.03-37.1L184.03-37.1 184.33-36.45Q183.78-35.6 183.36-25.9 182.93-16.2 182.93-5.25L182.93-5.25Q182.93-4.15 183.48-3.55 184.03-2.95 184.98-2.95L184.98-2.95Q185.68-2.95 186.36-3.23 187.03-3.5 187.46-3.8 187.88-4.1 187.98-4.2L187.98-4.2 188.68-3.4Q188.53-3.15 187.93-2.33 187.33-1.5 186.36-0.6 185.38 0.3 184.33 0.6L184.33 0.6ZM174.08-2.8Q175.13-2.8 176.36-3.4 177.58-4 178.43-4.63 179.28-5.25 179.53-5.45L179.53-5.45 179.53-19.15Q179.38-19.25 178.78-19.53 178.18-19.8 177.11-20.05 176.03-20.3 174.68-20.3L174.68-20.3Q171.33-20.3 169.41-18.03 167.48-15.75 167.48-11.8L167.48-11.8Q167.48-9.3 168.36-7.25 169.23-5.2 170.76-4 172.28-2.8 174.08-2.8L174.08-2.8ZM207.68 0.85Q206.98-1.55 204.8-8.58 202.63-15.6 201.78-18.3L201.78-18.3Q200.93-20.75 198.48-20.8L198.48-20.8 198.38-21 198.68-22.65 202.68-22.6Q204.58-22.6 206.3-22.75 208.03-22.9 208.53-22.95L208.53-22.95 208.63-22.7 208.33-21.15Q206.68-21.1 206.08-20.83 205.48-20.55 205.48-19.85L205.48-19.85Q205.48-18.9 207.23-12.68 208.98-6.45 209.63-4.25L209.63-4.25 209.83-4.25 212.78-11.65Q214.38-15.5 215.08-17.5L215.08-17.5Q214.53-19.2 213.75-20 212.98-20.8 211.53-20.8L211.53-20.8 211.43-21 211.73-22.65 215.73-22.6Q217.58-22.6 219.33-22.7 221.08-22.8 221.58-22.85L221.58-22.85 221.68-22.6 221.38-21.05Q219.68-21 219.1-20.75 218.53-20.5 218.53-19.85L218.53-19.85Q218.53-18.95 220.28-12.73 222.03-6.5 222.68-4.25L222.68-4.25 222.88-4.25Q225.08-9.9 225.78-11.5L225.78-11.5Q227.03-14.6 227.85-16.8 228.68-19 228.68-19.6L228.68-19.6Q228.68-20.3 228.2-20.58 227.73-20.85 226.63-20.85L226.63-20.85 224.78-20.85 224.58-21.15 224.83-22.7Q225.28-22.7 226.63-22.65 227.98-22.6 229.78-22.6L229.78-22.6 233.88-22.65 233.53-20.8Q232.53-20.7 231.93-19.98 231.33-19.25 230.43-17.05L230.43-17.05 223.43 0 220.73 0.85 216.23-13.9 215.93-13.9 210.43 0 207.68 0.85ZM245.33 0.6Q242.23 0.6 239.83-0.78 237.43-2.15 236.13-4.67 234.83-7.2 234.83-10.45L234.83-10.45Q234.83-13.8 236.35-16.75 237.88-19.7 240.43-21.45 242.98-23.2 245.88-23.2L245.88-23.2Q249.53-23.2 251.43-21.35 253.33-19.5 253.33-15.95L253.33-15.95Q253.33-14.5 253.03-13.5L253.03-13.5 252.38-12.9 238.58-12.9Q238.53-8.05 240.5-5.43 242.48-2.8 246.03-2.8L246.03-2.8Q248.83-2.8 252.13-4.35L252.13-4.35 252.43-4.25 252.98-2.8Q251.18-1.5 249-0.45 246.83 0.6 245.33 0.6L245.33 0.6ZM238.78-14.75L247.83-15.2Q248.58-15.3 248.83-15.55 249.08-15.8 249.08-16.55L249.08-16.55Q249.08-18.55 248-19.6 246.93-20.65 244.93-20.65L244.93-20.65Q242.58-20.65 240.9-19.05 239.23-17.45 238.78-14.75L238.78-14.75ZM266.57 0.6Q264.47 0.6 262.3 0.33 260.12 0.05 260.12 0L260.12 0 259.67-0.4 259.67-31.3Q259.67-34 257.82-34L257.82-34Q257.42-34 257.12-33.95 256.82-33.9 256.72-33.85L256.72-33.85 256.57-34 256.77-35.65Q258.92-35.95 261.22-36.45 263.52-36.95 264.17-37.1L264.17-37.1 264.47-36.45Q264.12-35.95 263.82-31.38 263.52-26.8 263.32-19.7L263.32-19.7Q265.57-21.3 267.2-22.25 268.82-23.2 269.37-23.2L269.37-23.2Q272.17-23.2 274.37-21.85 276.57-20.5 277.8-18.07 279.02-15.65 279.02-12.5L279.02-12.5Q279.02-8.9 277.35-5.9 275.67-2.9 272.82-1.15 269.97 0.6 266.57 0.6L266.57 0.6ZM267.97-2.15Q271.32-2.15 273.25-4.42 275.17-6.7 275.17-10.65L275.17-10.65Q275.17-13.15 274.3-15.25 273.42-17.35 271.9-18.57 270.37-19.8 268.57-19.8L268.57-19.8Q267.57-19.8 266.02-19.03 264.47-18.25 263.22-17.1L263.22-17.1 263.07-3.2Q263.97-2.75 265.37-2.45 266.77-2.15 267.97-2.15L267.97-2.15ZM313.22 0.6Q309.32 0.6 308.77-2.95L308.77-2.95 308.42-3.1Q303.22 0.45 302.17 0.45L302.17 0.45Q299.32 0.45 297.12-0.88 294.92-2.2 293.72-4.6 292.52-7 292.52-10.1L292.52-10.1Q292.52-13.65 294.19-16.65 295.87-19.65 298.74-21.43 301.62-23.2 304.97-23.2L304.97-23.2Q306.57-23.2 308.42-23L308.42-23 308.42-31.3Q308.42-34 306.57-34L306.57-34Q306.22-34 305.82-33.93 305.42-33.85 305.32-33.8L305.32-33.8 305.52-35.65Q307.67-35.95 309.97-36.45 312.27-36.95 312.92-37.1L312.92-37.1 313.22-36.45Q312.67-35.6 312.24-25.9 311.82-16.2 311.82-5.25L311.82-5.25Q311.82-4.15 312.37-3.55 312.92-2.95 313.87-2.95L313.87-2.95Q314.57-2.95 315.24-3.23 315.92-3.5 316.34-3.8 316.77-4.1 316.87-4.2L316.87-4.2 317.57-3.4Q317.42-3.15 316.82-2.33 316.22-1.5 315.24-0.6 314.27 0.3 313.22 0.6L313.22 0.6ZM302.97-2.8Q304.02-2.8 305.24-3.4 306.47-4 307.32-4.63 308.17-5.25 308.42-5.45L308.42-5.45 308.42-19.15Q308.27-19.25 307.67-19.53 307.07-19.8 305.99-20.05 304.92-20.3 303.57-20.3L303.57-20.3Q300.22-20.3 298.29-18.03 296.37-15.75 296.37-11.8L296.37-11.8Q296.37-9.3 297.24-7.25 298.12-5.2 299.64-4 301.17-2.8 302.97-2.8L302.97-2.8ZM329.87 0.6Q326.77 0.6 324.37-0.78 321.97-2.15 320.67-4.67 319.37-7.2 319.37-10.45L319.37-10.45Q319.37-13.8 320.89-16.75 322.42-19.7 324.97-21.45 327.52-23.2 330.42-23.2L330.42-23.2Q334.07-23.2 335.97-21.35 337.87-19.5 337.87-15.95L337.87-15.95Q337.87-14.5 337.57-13.5L337.57-13.5 336.92-12.9 323.12-12.9Q323.07-8.05 325.04-5.43 327.02-2.8 330.57-2.8L330.57-2.8Q333.37-2.8 336.67-4.35L336.67-4.35 336.97-4.25 337.52-2.8Q335.72-1.5 333.54-0.45 331.37 0.6 329.87 0.6L329.87 0.6ZM323.32-14.75L332.37-15.2Q333.12-15.3 333.37-15.55 333.62-15.8 333.62-16.55L333.62-16.55Q333.62-18.55 332.54-19.6 331.47-20.65 329.47-20.65L329.47-20.65Q327.12-20.65 325.44-19.05 323.77-17.45 323.32-14.75L323.32-14.75ZM349.06 0.85Q348.31-1.55 346.09-8.58 343.86-15.6 342.96-18.3L342.96-18.3Q342.11-20.7 339.56-20.8L339.56-20.8 339.46-21 339.76-22.65 343.91-22.6Q345.81-22.6 347.61-22.75 349.41-22.9 349.91-22.95L349.91-22.95 350.01-22.7 349.71-21.15Q348.01-21.1 347.39-20.83 346.76-20.55 346.76-19.85L346.76-19.85Q346.76-18.95 348.56-12.73 350.36-6.5 351.01-4.3L351.01-4.3 351.21-4.3 353.96-11Q355.31-14.3 356.21-16.65 357.11-19 357.11-19.6L357.11-19.6Q357.11-20.25 356.64-20.53 356.16-20.8 354.96-20.8L354.96-20.8 353.06-20.8 352.86-21.1 353.11-22.65 358.46-22.6 362.56-22.65 362.21-20.8Q361.16-20.65 360.56-19.95 359.96-19.25 359.01-17.05L359.01-17.05 351.86 0 349.06 0.85ZM373.71 0.6Q370.61 0.6 368.21-0.78 365.81-2.15 364.51-4.67 363.21-7.2 363.21-10.45L363.21-10.45Q363.21-13.8 364.74-16.75 366.26-19.7 368.81-21.45 371.36-23.2 374.26-23.2L374.26-23.2Q377.91-23.2 379.81-21.35 381.71-19.5 381.71-15.95L381.71-15.95Q381.71-14.5 381.41-13.5L381.41-13.5 380.76-12.9 366.96-12.9Q366.91-8.05 368.89-5.43 370.86-2.8 374.41-2.8L374.41-2.8Q377.21-2.8 380.51-4.35L380.51-4.35 380.81-4.25 381.36-2.8Q379.56-1.5 377.39-0.45 375.21 0.6 373.71 0.6L373.71 0.6ZM367.16-14.75L376.21-15.2Q376.96-15.3 377.21-15.55 377.46-15.8 377.46-16.55L377.46-16.55Q377.46-18.55 376.39-19.6 375.31-20.65 373.31-20.65L373.31-20.65Q370.96-20.65 369.29-19.05 367.61-17.45 367.16-14.75L367.16-14.75ZM385.16 0.6L385.36-1.45Q386.76-1.85 387.33-2.45 387.91-3.05 388.03-3.9 388.16-4.75 388.16-6.75L388.16-6.75 388.16-31.3Q388.16-32.85 387.81-33.4 387.46-33.95 386.36-33.95L386.36-33.95Q386.11-33.95 385.21-33.85L385.21-33.85 385.06-33.95 385.26-35.65Q389.46-36.25 392.66-37.1L392.66-37.1 392.96-36.45Q392.41-35.6 391.98-25.75 391.56-15.9 391.56-4.9L391.56-4.9Q391.56-3.4 391.96-2.75 392.36-2.1 393.31-2.1L393.31-2.1 395.06-2.2 395.16-2 394.76 0.15Q391.46 0 390.31 0L390.31 0Q388.61 0 385.16 0.6L385.16 0.6ZM407.5 0.6Q404.65 0.6 402.45-0.8 400.25-2.2 399.03-4.73 397.81-7.25 397.81-10.5L397.81-10.5Q397.81-14 399.33-16.93 400.86-19.85 403.5-21.53 406.15-23.2 409.4-23.2L409.4-23.2Q412.2-23.2 414.43-21.8 416.65-20.4 417.88-17.88 419.11-15.35 419.11-12.1L419.11-12.1Q419.11-8.6 417.58-5.68 416.06-2.75 413.4-1.07 410.75 0.6 407.5 0.6L407.5 0.6ZM408.9-1.85Q411.7-1.85 413.36-4.13 415-6.4 415-10.3L415-10.3Q415-13.25 414.11-15.58 413.2-17.9 411.58-19.2 409.95-20.5 407.9-20.5L407.9-20.5Q405.11-20.5 403.45-18.2 401.81-15.9 401.81-11.95L401.81-11.95Q401.81-9 402.7-6.7 403.61-4.4 405.2-3.13 406.81-1.85 408.9-1.85L408.9-1.85ZM423.15 11.85L423.4 9.9Q424.5 9.75 425.03 9.45 425.55 9.15 425.75 8.45 425.95 7.75 425.95 6.3L425.95 6.3Q425.95 4.2 426 2.7L426 2.7 426.05-2 426.05-16.9Q426.05-18.6 425.5-19.28 424.95-19.95 423.6-19.95L423.6-19.95 423.05-19.95 422.9-20.15 423.05-21.8Q425.2-22.15 427.33-22.63 429.45-23.1 430.05-23.25L430.05-23.25 430.35-22.85Q430.3-22.6 430.13-21.78 429.95-20.95 429.85-20.15L429.85-20.15 430.05-19.8Q434.75-23.05 435.85-23.05L435.85-23.05Q438.7-23.05 440.9-21.73 443.1-20.4 444.3-18 445.5-15.6 445.5-12.5L445.5-12.5Q445.5-8.95 443.8-5.95 442.1-2.95 439.25-1.18 436.4 0.6 433.05 0.6L433.05 0.6Q431.95 0.6 430.88 0.53 429.8 0.45 429.4 0.4L429.4 0.4 429.45 5.55Q429.45 7.85 429.93 8.68 430.4 9.5 431.8 9.5L431.8 9.5 433.5 9.45 433.6 9.6 433.2 11.5 428.45 11.5Q426.65 11.5 425.13 11.65 423.6 11.8 423.15 11.85L423.15 11.85ZM434.45-2.15Q437.8-2.15 439.73-4.42 441.65-6.7 441.65-10.65L441.65-10.65Q441.65-13.15 440.78-15.2 439.9-17.25 438.38-18.45 436.85-19.65 435.05-19.65L435.05-19.65Q434.05-19.65 432.6-18.98 431.15-18.3 429.85-17.2L429.85-17.2Q429.45-10.65 429.45-3.1L429.45-3.1Q430.45-2.7 431.83-2.43 433.2-2.15 434.45-2.15L434.45-2.15ZM459.6 0.6Q456.5 0.6 454.1-0.78 451.7-2.15 450.4-4.67 449.1-7.2 449.1-10.45L449.1-10.45Q449.1-13.8 450.62-16.75 452.15-19.7 454.7-21.45 457.25-23.2 460.15-23.2L460.15-23.2Q463.8-23.2 465.7-21.35 467.6-19.5 467.6-15.95L467.6-15.95Q467.6-14.5 467.3-13.5L467.3-13.5 466.65-12.9 452.85-12.9Q452.8-8.05 454.77-5.43 456.75-2.8 460.3-2.8L460.3-2.8Q463.1-2.8 466.4-4.35L466.4-4.35 466.7-4.25 467.25-2.8Q465.45-1.5 463.27-0.45 461.1 0.6 459.6 0.6L459.6 0.6ZM453.05-14.75L462.1-15.2Q462.85-15.3 463.1-15.55 463.35-15.8 463.35-16.55L463.35-16.55Q463.35-18.55 462.27-19.6 461.2-20.65 459.2-20.65L459.2-20.65Q456.85-20.65 455.17-19.05 453.5-17.45 453.05-14.75L453.05-14.75ZM472.65-1.8Q474.15-1.95 474.65-2.78 475.15-3.6 475.15-5.95L475.15-5.95 475.15-16.95Q475.15-18.6 474.7-19.3 474.25-20 473.25-20L473.25-20Q472.85-20 472.57-19.95 472.3-19.9 472.2-19.85L472.2-19.85 471.95-20.2 472.1-21.75Q474-22.1 476.12-22.6 478.25-23.1 478.85-23.25L478.85-23.25 479.2-22.95Q479.1-22.5 478.9-20.88 478.7-19.25 478.75-17.8L478.75-17.8 478.95-17.65Q480.45-20 482.47-21.5 484.5-23 486-23L486-23Q486.7-23 487.07-22.93 487.45-22.85 487.55-22.8L487.55-22.8 487.7-22.6Q487.6-21.9 487.27-19.63 486.95-17.35 486.9-15.45L486.9-15.45 484.95-15.3Q484.95-17.35 484.67-18.03 484.4-18.7 483.6-18.7L483.6-18.7Q482.5-18.7 481.25-17.78 480-16.85 478.95-15.3L478.95-15.3Q478.9-13.85 478.75-10.5 478.6-7.15 478.55-5.1L478.55-5.1Q478.55-3.4 479.05-2.8 479.55-2.2 480.95-2.2L480.95-2.2Q481.6-2.2 482.25-2.25 482.9-2.3 483.15-2.3L483.15-2.3 483.2-2.1 482.75 0.1Q482.25 0.1 480.75 0.05 479.25 0 477.65 0L477.65 0Q475.8 0 474.3 0.08 472.8 0.15 472.4 0.2L472.4 0.2 472.65-1.8Z" opacity="1" transform="matrix(1,0,0,1,0,0)" fill="#b81d33" class="slogan-text-1" data-fill-palette-color="secondary" id="text-1"></path></svg></g></svg></g></svg></g></svg></g><g></g></svg></g><defs></defs></svg><rect width="203.46430096694385" height="247.2" fill="none" stroke="none" visibility="hidden"></rect></g></svg></g></svg>